# xmcd CD database file
#
# Track frame offsets:
#	150
#	15452
#	30427
#	47410
#	68727
#	88692
#	105937
#	117345
#	136580
#	148650
#	167722
#	179815
#	199020
#	213232
#
# Disc length: 3057 seconds
#
# Revision: 2
# Processed by: cddbd v1.4PL0 Copyright (c) Steve Scherf et al.
# Submitted via: CDex 1.50beta10
#
DISCID=b50bef0e
DTITLE=Gary Primich - My Pleasure
DYEAR=1992
DGENRE=Blues
TTITLE0=Boogie-Woogie Baby
TTITLE1=Stonebroke
TTITLE2=Walkin' The Poodle
TTITLE3=Icy Chill
TTITLE4=Lonesome Stranger
TTITLE5=Give A Little More
TTITLE6=I Want Somebody To Love
TTITLE7=Bad Dog
TTITLE8=Hush Your Mouth
TTITLE9=Money Habit
TTITLE10=I Love No More
TTITLE11=Last Call
TTITLE12=#9 Train
TTITLE13=September Song
EXTD=YEAR: 1992
EXTT0=
EXTT1=
EXTT2=
EXTT3=
EXTT4=
EXTT5=
EXTT6=
EXTT7=
EXTT8=
EXTT9=
EXTT10=
EXTT11=
EXTT12=
EXTT13=
PLAYORDER=
